<svg id="Layer_1" data-name="Layer 1" xmlns="http://www.w3.org/2000/svg" xmlns:xlink="http://www.w3.org/1999/xlink" viewBox="0 0 250 250"><defs><style>.cls-1{fill:url(#linear-gradient);}.cls-2,.cls-3{fill:#fff;}.cls-3{opacity:0.6;}</style><linearGradient id="linear-gradient" x1="-230.11" y1="335.81" x2="-69.46" y2="106.08" gradientTransform="translate(144.24 -141.25) rotate(-30)" gradientUnits="userSpaceOnUse"><stop offset="0" stop-color="#007dc5"/><stop offset="0.51" stop-color="#7a4b72"/><stop offset="1" stop-color="#ed1c24"/></linearGradient></defs><circle class="cls-1" cx="125" cy="125" r="125"/><path class="cls-2" d="M173.93,68h-7.16v-6.8a7.25,7.25,0,0,0-2.05-5.08,6.94,6.94,0,0,0-5-2.1,7.11,7.11,0,0,0-7,7.18V68H97.31v-6.8a7.26,7.26,0,0,0-2.06-5.08,6.93,6.93,0,0,0-5-2.1,7.1,7.1,0,0,0-7,7.18V68H76.08A13.82,13.82,0,0,0,62.4,82V182a13.82,13.82,0,0,0,13.68,14h97.85a13.82,13.82,0,0,0,13.67-14V82A13.82,13.82,0,0,0,173.93,68Zm-.33,106.77a6.83,6.83,0,0,1-6.76,6.9H83.08a6.83,6.83,0,0,1-6.76-6.9v-70.9H173.6Z"/><path class="cls-3" d="M165.31,140.2a21.45,21.45,0,0,1-21.22,21.68,20.81,20.81,0,0,1-10-2.56l-.08,0a34,34,0,0,1-5.8-5.75,28.37,28.37,0,0,1-3.11-4.52c-.41-.79-.84-1.58-1.26-2.36a2.37,2.37,0,0,1-.09-.36l-7.17-12.67-.06-.11a12.51,12.51,0,0,0-11-7.14c-7,0-12.62,6.2-12.62,13.85S98.49,154,105.45,154a12.59,12.59,0,0,0,11.38-7.82l4.82,8.52a21,21,0,0,1-15.74,7.14,21.68,21.68,0,0,1,0-43.36,20.81,20.81,0,0,1,10,2.56l.08,0a34,34,0,0,1,5.8,5.75,28.37,28.37,0,0,1,3.11,4.52c.41.79.84,1.58,1.26,2.36a2.22,2.22,0,0,1,.09.37l7.17,12.66.06.12A12.52,12.52,0,0,0,144.55,154c7,0,12.62-6.19,12.62-13.84s-5.66-13.84-12.62-13.84a12.6,12.6,0,0,0-11.38,7.83l-4.82-8.53a21,21,0,0,1,15.74-7.14A21.45,21.45,0,0,1,165.31,140.2Z"/></svg>