<svg id="Layer_1" data-name="Layer 1" xmlns="http://www.w3.org/2000/svg" xmlns:xlink="http://www.w3.org/1999/xlink" viewBox="0 0 250 250"><defs><style>.cls-1{fill:url(#radial-gradient);}.cls-2{opacity:0.8;fill:url(#linear-gradient);}.cls-3{fill:#fdfdfd;}.cls-4{fill:#717171;}.cls-5{fill:#540e13;}.cls-6{fill:none;stroke:#ed1c24;stroke-miterlimit:10;}</style><radialGradient id="radial-gradient" cx="124.88" cy="124.93" r="124.68" gradientTransform="translate(1.11 -1.61) scale(0.99 1.01)" gradientUnits="userSpaceOnUse"><stop offset="0.83" stop-color="#fff"/><stop offset="0.91" stop-color="#b6b7b8"/><stop offset="1" stop-color="#6d6e71"/></radialGradient><linearGradient id="linear-gradient" x1="226.42" y1="145.22" x2="46.1" y2="58.63" gradientUnits="userSpaceOnUse"><stop offset="0" stop-color="#646464"/><stop offset="0.13" stop-color="#4c4c4c"/><stop offset="0.35" stop-color="#2d2d2d"/><stop offset="0.53" stop-color="#191919"/><stop offset="0.65" stop-color="#121212"/><stop offset="1" stop-color="#111"/></linearGradient></defs><circle class="cls-1" cx="125" cy="125" r="125"/><ellipse cx="125" cy="125" rx="108.34" ry="110.67"/><path class="cls-2" d="M124.2,19.56c7.39-.08,41.66.4,70.25,27.94,24.69,23.79,28.74,48.91,31.41,69.69,1.16,9-1.74,26.58-1.35,20.7h0s-1.26,2.05-2.51,2.5c-1.67.6-3.78-1.43-4.31-1.94-8-7.65-26.09-23.25-29.82-26.26-12.05-9.73-26.11-10.83-33.31-11.39-13.12-1-23.17,2.09-34.45,5.69-10,3.21-16.57,6.5-29.26,12.94C80,125,56.82,137.33,39.31,140c-2.2.34-6.33.83-9.75-1.55C24.72,135.08,24.2,128,24,125.12c-.43-5.88-1.32-44.9,30.15-75.81C61.8,41.78,86.45,19.94,124.2,19.56Z" transform="translate(0.11 0.08)"/><polygon class="cls-3" points="54.81 64.4 133.41 122.16 124.68 132.88 54.81 64.4"/><polygon class="cls-4" points="163.19 82.42 116.55 125.66 124.96 133.56 163.19 82.42"/><ellipse class="cls-5" cx="125" cy="125" rx="1.35" ry="1.38"/><line class="cls-6" x1="125" y1="125" x2="125" y2="28.51"/></svg>