<svg id="Layer_1" data-name="Layer 1" xmlns="http://www.w3.org/2000/svg" xmlns:xlink="http://www.w3.org/1999/xlink" viewBox="0 0 250 250"><defs><style>.cls-1{fill:url(#linear-gradient);}.cls-2{fill:url(#linear-gradient-2);}.cls-3{fill:#fff;}</style><linearGradient id="linear-gradient" x1="125" y1="250" x2="125" gradientUnits="userSpaceOnUse"><stop offset="0" stop-color="#00d496"/><stop offset="0.03" stop-color="#02cb95"/><stop offset="0.2" stop-color="#0f9a93"/><stop offset="0.38" stop-color="#1a7290"/><stop offset="0.54" stop-color="#22538e"/><stop offset="0.71" stop-color="#283c8d"/><stop offset="0.86" stop-color="#2c2f8c"/><stop offset="1" stop-color="#2d2a8c"/></linearGradient><linearGradient id="linear-gradient-2" x1="124.89" y1="267.7" x2="124.89" y2="-17.74" gradientUnits="userSpaceOnUse"><stop offset="0" stop-color="#ff0076"/><stop offset="0.2" stop-color="#ff3d48"/><stop offset="0.38" stop-color="#ff6f21"/><stop offset="0.52" stop-color="#ff8e09"/><stop offset="0.6" stop-color="#ff9a00"/><stop offset="1" stop-color="#ff0"/></linearGradient></defs><circle class="cls-1" cx="125" cy="125" r="125"/><path class="cls-2" d="M249.89,124.91a125,125,0,1,1-125-125A125,125,0,0,1,249.89,124.91Z" transform="translate(0.11 0.08)"/><path class="cls-3" d="M76.05,116.29a.5.5,0,0,0,.41.22.52.52,0,0,0,.29-.09l3.19-2.22,8.81-1.12a.5.5,0,0,0,.43-.56.49.49,0,0,0-.56-.43l-8.93,1.14a.58.58,0,0,0-.22.08l-3.29,2.29A.49.49,0,0,0,76.05,116.29Z" transform="translate(0.11 0.08)"/><path class="cls-3" d="M199.63,88.62a.41.41,0,0,0,0-.11.13.13,0,0,0,0-.06l-.12-.44a.16.16,0,0,0,0-.09l-11-38.54a.52.52,0,0,0-.19-.27L154.64,24.89a.4.4,0,0,0-.21-.09l-29-4.68a.52.52,0,0,0-.4-.12l-.16,0-.16,0a.52.52,0,0,0-.4.12l-29,4.68a.4.4,0,0,0-.21.09L61.55,49.11a.52.52,0,0,0-.19.27l-11,38.54a.16.16,0,0,0,0,.09l-.12.44a.13.13,0,0,0,0,.06.41.41,0,0,0,0,.11v0l5.49,48.27,6.19,25.18,12.56,35.64a.52.52,0,0,0,.12.19l20.58,20.35,0,.05,16,11.13a.48.48,0,0,0,.31.35.45.45,0,0,0,.16,0l.12,0s.07,0,.11,0h26l.12,0s.07,0,.11,0l.17,0a.48.48,0,0,0,.3-.35l16-11.13.05-.05,20.58-20.35a.52.52,0,0,0,.12-.19L188,162.1l6.19-25.18,5.49-48.27ZM188.44,53.09l9.7,33.85-9.7-9.32Zm-33.88-27,32.88,23.72V76.66l-7.76-7.45h0L161.24,51.48h0a.47.47,0,0,0-.29-.28L153,43.61ZM125.13,217.88h-9.19l3.43-16.94h11l3.43,16.94ZM124.65,44.3h27.67l7.49,7.2-17.29,6.8h0l-17.62,6.94-17.62-6.94h0L90,51.5l7.49-7.2ZM128.53,153l4.15,9.17-7.79,4-7.79-4,4.15-9.17a.45.45,0,0,0,0-.2V124.92a.47.47,0,0,0-.09-.28L103.56,98.91h42.67l-17.65,25.73a.47.47,0,0,0-.09.28V152.8A.65.65,0,0,0,128.53,153Zm-3.4-55.09H102.69l-9.12-3.22,13.79-35.27L124.18,66v0a.51.51,0,0,0,.47.32.39.39,0,0,0,.18,0l.06,0,.06,0a.39.39,0,0,0,.18,0,.51.51,0,0,0,.47-.32v0l16.82-6.62,13.79,35.27-9.12,3.22Zm18.22-38.86,17.25-6.79,18.16,17.45-7,19.4-14.63,5.24Zm-36.92,0-13.8,35.3L78,89.11l-7-19.4L89.18,52.26ZM92.75,95.46h0l9.54,3.37,18,26.25v27.61l-4.3,9.5a.5.5,0,0,0,.23.65l7.94,4.07a.47.47,0,0,0,0,.16.5.5,0,0,0,.45.28.49.49,0,0,0,.23-.06h0a.49.49,0,0,0,.23.06.5.5,0,0,0,.45-.28.47.47,0,0,0,0-.16l7.94-4.07a.5.5,0,0,0,.23-.65l-4.3-9.5V125.08l18-26.25L157,95.46h0l15-5.36,13.71,17.48L172.45,99a.51.51,0,0,0-.45,0l-31.53,11.86a.51.51,0,0,0-.29.27.51.51,0,0,0,0,.4l1.94,4.44-8.3,12.12a0,0,0,0,1,0,0,.64.64,0,0,0-.06.18s0,0,0,0l-1.15,18.73a.64.64,0,0,0,0,.2l6.12,17.44L137.51,169l-3.25.62,1.76-2.4a.49.49,0,0,0,0-.52.51.51,0,0,0-.45-.28h-2.51a.52.52,0,0,0-.32.11l-6,4.92H123l-6-4.92a.52.52,0,0,0-.32-.11h-2.51a.5.5,0,0,0-.4.8l1.76,2.4-3.25-.62L111,164.69l6.12-17.44a.64.64,0,0,0,0-.2L116,128.32s0,0,0,0a.64.64,0,0,0-.06-.18s0,0,0,0L107.65,116l1.95-4.44a.55.55,0,0,0,0-.4.51.51,0,0,0-.29-.27L77.78,99a.51.51,0,0,0-.45,0l-13.26,8.56L77.78,90.1Zm75.08,21.93h0a.86.86,0,0,0-.07-.1s0,0-.05,0l-.09,0-.08-.05h0l-10.51-3a.5.5,0,0,0-.47.1L144,125.46a.5.5,0,0,0-.13.56.49.49,0,0,0,.46.31h0l24.43-.9L177.42,136l-26.77,4.82-12.09-12.51,7.28-9.25a.5.5,0,0,0-.09-.7.5.5,0,0,0-.7.08l-7.54,9.6a.5.5,0,0,0,0,.66L150,141.55a.47.47,0,0,0,.27.28L170,162.28,146,151.5l-11.22-23.11,8.2-12,29.18-10,14.55,3.38-16.46,11.69a.4.4,0,0,0-.15.17l-.1.18Zm1.63,5.58-.79,1.46-23,.85L157,115.19,167,118Zm-44.33,77h-5.75l-2-10.18,6.81,3.15s0,.07,0,.1a.52.52,0,0,0,.46.29.54.54,0,0,0,.21-.05h.06a.54.54,0,0,0,.21.05.52.52,0,0,0,.46-.29s0-.07,0-.1l6.81-3.15-2,10.18Zm-14.68-33.63,1,3.3a.5.5,0,0,0,.38.36l4.8.91a.51.51,0,0,0,.52-.22.51.51,0,0,0,0-.57l-1.93-2.63h1.35l5.78,4.72L119.12,184l-16.73,4.59Zm0-2.91-5.76-11.52,10.48-21.6,1,16.73Zm14.22,9.09h1.9l3.1,11.63-4.76,1.63-4.76-1.63,3.1-11.63Zm7.73,16.19-7.49,3.46-7.48-3.46,2.33-3.64,4.47,1.53a.51.51,0,0,0,.44.29.45.45,0,0,0,.16,0l.08,0,.08,0a.45.45,0,0,0,.16,0,.51.51,0,0,0,.44-.29L130,185Zm-1-3.41L144,188.73l-10.63-.32Zm-15,3.14-10.63.32,12.64-3.46Zm-.13,1,2.09,10.53h-3.55l-11.9-10.13Zm17.24,0,13.36.4L135,199.94h-3.55ZM130.66,184l-3.16-11.85,5.78-4.72h1.35l-1.93,2.63a.51.51,0,0,0,0,.57.51.51,0,0,0,.52.22L138,170a.5.5,0,0,0,.38-.36l1-3.3,8.06,22.31Zm3-37,1-16.73,10.48,21.6-5.76,11.52ZM143,115.39l-1.66-3.8L172.12,100l13.14,8.48-13-3h-.11a.5.5,0,0,0-.17,0Zm-36.16,0-29-9.91a.5.5,0,0,0-.17,0h-.11l-13,3L77.66,100l30.81,11.59Zm-29.23-8.92,29.18,10,8.2,12L103.74,151.5,79.79,162.28l19.75-20.45a.47.47,0,0,0,.27-.28l12.43-12.85a.5.5,0,0,0,0-.66l-7.54-9.6a.5.5,0,0,0-.7-.08.49.49,0,0,0-.08.7l7.27,9.25L99.13,140.82,72.36,136,81,125.43l24.43.9h0a.49.49,0,0,0,.33-.87l-12.56-11.2a.5.5,0,0,0-.47-.1l-10.51,3h0l-.08.05-.09,0s0,0,0,0a.86.86,0,0,0-.07.1h0l-2.21,4.5-.1-.18a.4.4,0,0,0-.15-.17L63,109.85ZM80.32,123,82.75,118l10-2.84,11.32,10.09-23-.85Zm-1.5-.68,1.38,2.57-8.59,10.49-8.76-24.41ZM71.71,136.9l26.58,4.79L77.62,163.08,64.74,150.19Zm32.17,15.64L110,164.71l-8.56,23.71L78.49,164Zm-3.95,35.77-15.42-4.84-5.75-17.76Zm1.42,1.49,12.41,10.56-16.4,9.21L85.08,184.7Zm13.41,11.14h3.59l-3.41,16.84-16.69-7.56Zm16.67,0H135l16.51,9.28-16.69,7.56Zm4.59-.58,12.41-10.56,16.27-5.1-12.28,24.87Zm13.83-12.05L171,165.71l-5.75,17.76Zm-1.47.11-8.56-23.71,6.08-12.17L171.29,164Zm3.11-46.73,26.58-4.79,7,13.29-12.88,12.89Zm18.09-16.83,1.38-2.57,16-11.35-8.76,24.41Zm3.16-35.45,6.81-18.94,7.89,7.58v30.11ZM124.89,21l28.7,4.64L152.07,43.3H97.71L96.19,25.68ZM62.34,49.78,95.22,26.06l1.52,17.55-7.9,7.58a.47.47,0,0,0-.29.28h0L70.1,69.2h0l-7.76,7.45Zm0,28.27,7.89-7.58L77,89.41l-14.7,18.75Zm-1-25V77.62l-9.7,9.32Zm0,25.92v30.55L58,125.62,51.19,88.77Zm-8.56,24,4.64,25.21-1.15,5.47Zm5.65,25.27h0v0L62,111.44l8.93,24.87L64.1,149.26l-7.45-12.55Zm-1,11.68,6.2,10.46-1.09,10.32Zm5.85,23.23,1.25-11.79L77.17,164l6.18,19.08-14.59-4.34Zm31.88,53.76L75.3,197.3l-6.12-17.36,14.59,4.35,12.84,26Zm16.3,11.49L96,217.71l1.5-6.74,17.16,7.78Zm13.69.42H112.35l3.32-10h18.44l3.32,10Zm13.22-.42-3.22-9.67L152.29,211l1.5,6.74Zm36.14-31.12-19.85,19.63-1.47-6.6,12.85-26,14.59-4.35ZM181,178.78l-14.59,4.34L172.61,164l12.66-12.66,1.25,11.79Zm6.25-18.06-1.1-10.32,6.21-10.46Zm-1.59-11.46-6.79-12.95,8.93-24.87,3.52,16.78v0h0l1.78,8.45Zm7.83-15.59-1.15-5.47L197,103Zm-1.69-8-3.38-16.06V79l10.16,9.76Z" transform="translate(0.11 0.08)"/><path class="cls-3" d="M173.32,116.51a.5.5,0,0,0,.41-.22.49.49,0,0,0-.13-.69l-3.29-2.29a.58.58,0,0,0-.22-.08l-8.93-1.14a.49.49,0,0,0-.56.43.5.5,0,0,0,.43.56l8.81,1.12,3.19,2.22A.52.52,0,0,0,173.32,116.51Z" transform="translate(0.11 0.08)"/></svg>