<svg id="Layer_1" data-name="Layer 1" xmlns="http://www.w3.org/2000/svg" xmlns:xlink="http://www.w3.org/1999/xlink" viewBox="0 0 250 250"><defs><style>.cls-1{fill:url(#linear-gradient);}.cls-2{fill:#fff;}</style><linearGradient id="linear-gradient" x1="125" y1="250" x2="125" gradientUnits="userSpaceOnUse"><stop offset="0" stop-color="#900000"/><stop offset="1" stop-color="#ff0e47"/></linearGradient></defs><circle class="cls-1" cx="125" cy="125" r="125"/><path class="cls-2" d="M54.44,129.58c1.29-1.43,4.16-3.18,8.92-8.41C54.54,110.82,55,94,64.79,85.2c10.19-9.15,27-7.4,36.09,3.49,14.83,14.84,30.06,29,44.89,43.86a42.37,42.37,0,0,0,23.68,7.89c18.49.2,33.8-12,36.22-30.79-3.71-.43-8.19.3-11.9-.13-3,11.67-11.28,18.84-22.38,19.15-13.94.39-23.59-10.83-23.94-11.39C134,104,121.32,90.33,107.87,77.05c-2.06-1.87-12.7-11.2-28.47-10.35-1.62.09-20.59,1.43-30,17.34C41.4,97.54,42.72,116.43,54.44,129.58Z"/><path class="cls-2" d="M142.15,95.81,134,87.4c2.14-3.44,16.18-21.66,35.19-20.31a73.92,73.92,0,0,1,12.94,2.07,35.28,35.28,0,0,1,23.41,29.11l-11.38-.13c-3.68-10.07-10.57-17.06-20.7-19.28C163.11,76.59,153.93,82.55,142.15,95.81Z"/><path class="cls-2" d="M71,129.19l-8.4,7.89,47,48.13a23,23,0,0,0,30.14.9q16.44-16.62,32.86-33.25l-16.3-1-23.41,23.93a10,10,0,0,1-7.25,3.75,9.76,9.76,0,0,1-6.47-2.2Z"/></svg>