<svg id="Layer_1" data-name="Layer 1" xmlns="http://www.w3.org/2000/svg" xmlns:xlink="http://www.w3.org/1999/xlink" viewBox="0 0 250 250"><defs><style>.cls-1{fill:url(#linear-gradient);}.cls-2{fill:#fff;}</style><linearGradient id="linear-gradient" x1="125" y1="250" x2="125" gradientUnits="userSpaceOnUse"><stop offset="0" stop-color="#015afe"/><stop offset="1" stop-color="#00fcff"/></linearGradient></defs><circle class="cls-1" cx="125" cy="125" r="125"/><path class="cls-2" d="M186.2,72.11H62.43a9.3,9.3,0,0,0-9.2,9.4v85.9a9.3,9.3,0,0,0,9.2,9.4H186.2a9.3,9.3,0,0,0,9.21-9.4V81.51A9.31,9.31,0,0,0,186.2,72.11Zm-8,26.39c-29,15.84-50.28,27.33-52,28a6.19,6.19,0,0,1-2.28.43,5.53,5.53,0,0,1-2.28-.6L69,96.34A6.08,6.08,0,0,1,68.07,90a5.9,5.9,0,0,1,6.84-3.1L124.05,114l49-27.34a6.59,6.59,0,0,1,7,2.84A7,7,0,0,1,178.17,98.5Z" transform="translate(-0.46 -0.37)"/></svg>