<svg id="Layer_1" data-name="Layer 1" xmlns="http://www.w3.org/2000/svg" xmlns:xlink="http://www.w3.org/1999/xlink" viewBox="0 0 250 250"><defs><style>.cls-1{fill:url(#linear-gradient);}.cls-2{fill:#fff;}</style><linearGradient id="linear-gradient" x1="123.87" y1="256.47" x2="126.2" y2="-17.51" gradientUnits="userSpaceOnUse"><stop offset="0" stop-color="#fd7295"/><stop offset="1" stop-color="#fc2346"/></linearGradient></defs><path class="cls-1" d="M249.91,129.18a125.76,125.76,0,0,1-9.62,44A125,125,0,0,1,.53,136.69c-.1-1-.18-2-.26-3.05-.1-1.57-.18-3.14-.22-4.71a126.12,126.12,0,0,1,2.39-28.65h0A125,125,0,0,1,241.2,78.86a124,124,0,0,1,8.64,39.9C250,122.24,250,125.72,249.91,129.18Z" transform="translate(0.01 0.08)"/><path class="cls-2" d="M135.17,56.5l31.15,30.88a32.4,32.4,0,0,1,4.79,12.51c1.86,11.82-3.58,21-5.32,23.7l-16,27.15L178,122.52A34,34,0,0,0,185.22,105c1.48-15-8-25.43-9.58-27.15L122.13,30.94q1.73,71.36,3.46,142.7c-1.42-.48-16.64-5.31-29,4.26-1.15.88-13.87,11-10.91,24,2.53,11.08,14.93,17,24.75,17,12.54,0,24.39-9.8,28.22-24.23Q136.9,125.58,135.17,56.5Z" transform="translate(0.01 0.08)"/></svg>