<svg id="Layer_1" data-name="Layer 1" xmlns="http://www.w3.org/2000/svg" xmlns:xlink="http://www.w3.org/1999/xlink" viewBox="0 0 250.11 250.08"><defs><style>.cls-1{fill:#414042;}.cls-2,.cls-5{fill:none;stroke-miterlimit:10;}.cls-2{stroke:#808285;stroke-width:1.87px;}.cls-3{fill:#fff;}.cls-4{fill:url(#linear-gradient);}.cls-5{stroke:#fff;stroke-width:0.62px;}.cls-6{fill:#ff891f;}.cls-7{fill:url(#linear-gradient-2);}</style><linearGradient id="linear-gradient" x1="65.4" y1="174.19" x2="65.4" y2="75.83" gradientUnits="userSpaceOnUse"><stop offset="0" stop-color="#d7d7d7"/><stop offset="0.5" stop-color="#5f5f5f"/><stop offset="1" stop-color="#d7d7d7"/></linearGradient><linearGradient id="linear-gradient-2" x1="17.95" y1="129.97" x2="267.96" y2="129.97" gradientTransform="matrix(0.73, 0.68, -0.68, 0.73, 109.57, -67.68)" gradientUnits="userSpaceOnUse"><stop offset="0" stop-color="#21ce99"/><stop offset="1" stop-color="#00ec7e"/></linearGradient></defs><path class="cls-1" d="M250,125A124.82,124.82,0,1,1,140.63,1,125,125,0,0,1,250,125Z" transform="translate(0.11 0.08)"/><line class="cls-2" x1="42.99" y1="77" x2="85" y2="77"/><line class="cls-2" x1="42.99" y1="173.18" x2="85" y2="173.18"/><path class="cls-3" d="M81,9.91V240.1A124.89,124.89,0,0,1,47,218.57V31.43A124.62,124.62,0,0,1,81,9.91Z" transform="translate(0.11 0.08)"/><path class="cls-4" d="M111.42,122.06V128a1.27,1.27,0,0,1-1.26,1.26h-1.74a44.68,44.68,0,0,1-23.53,35.22v9.74h-.3l-2.31-8.45a44.81,44.81,0,0,1-36.79-.1l-2.31,8.45h-.3v-9.75h0a44.62,44.62,0,0,1,0-78.64V76h.3l2.31,8.44a44.63,44.63,0,0,1,36.78-.11l2.32-8.47h.3v9.74a44.68,44.68,0,0,1,23.53,35.23h1.74A1.26,1.26,0,0,1,111.42,122.06Z" transform="translate(0.11 0.08)"/><g id="WatchFace"><circle cx="64.1" cy="125.09" r="42.49"/><g id="HourLines"><line class="cls-5" x1="64.1" y1="82.6" x2="64.1" y2="89.05"/><line class="cls-5" x1="99.53" y1="104.69" x2="100.93" y2="103.89"/><line class="cls-5" x1="27.31" y1="146.28" x2="28.71" y2="145.47"/><line class="cls-5" x1="84.59" y1="89.71" x2="85.4" y2="88.32"/><line class="cls-5" x1="43.65" y1="89.73" x2="42.84" y2="88.33"/><line class="cls-5" x1="85.4" y1="161.85" x2="84.59" y2="160.45"/><line class="cls-5" x1="28.71" y1="104.69" x2="27.31" y2="103.89"/><line class="cls-5" x1="100.93" y1="146.28" x2="99.53" y2="145.47"/><line class="cls-5" x1="42.83" y1="161.85" x2="43.64" y2="160.45"/><line class="cls-5" x1="64.1" y1="161.13" x2="64.1" y2="167.58"/><line class="cls-5" x1="21.61" y1="125.09" x2="28.08" y2="125.09"/><line class="cls-5" x1="100.13" y1="125.09" x2="106.6" y2="125.09"/></g><path class="cls-3" d="M97.8,108.52a.69.69,0,0,1-.37.6l-32.27,16a.9.9,0,0,1-.08.28l-.06.15a1,1,0,0,1-1.3.47l-20-9.23a1,1,0,0,1-.47-1.29l.07-.14a1,1,0,0,1,1.29-.48l19.8,9.15,32.44-16.15a.66.66,0,0,1,.88.3A.62.62,0,0,1,97.8,108.52Z" transform="translate(0.11 0.08)"/><path class="cls-6" d="M73.47,158.5a.7.7,0,0,1-.86-.49l-9-31.89a1.17,1.17,0,0,1-.8-1.11,1.15,1.15,0,0,1,.27-.75l-1.31-4.65a.58.58,0,0,1,0-.19.7.7,0,0,1,.51-.67.71.71,0,0,1,.86.48l1.32,4.68a1.18,1.18,0,0,1,.74,1.1,1.15,1.15,0,0,1-.23.7l9,31.92A.72.72,0,0,1,73.47,158.5Z" transform="translate(0.11 0.08)"/></g><circle class="cls-7" cx="124.89" cy="124.92" r="124.99" transform="translate(-51.64 124.98) rotate(-45)"/><path class="cls-3" d="M68.91,94.2l21.18,12.69a2,2,0,0,0,2.12,0L145,72.71a2,2,0,0,0-.06-3.4L125.88,57.89a2,2,0,0,0-2.06,0L68.91,90.77a2,2,0,0,0,0,3.43Z" transform="translate(0.11 0.08)"/><path class="cls-3" d="M180.79,90.75,159.63,78.08a2,2,0,0,0-2.11,0l-52.8,34.16a2,2,0,0,0,.06,3.39l19.08,11.43a2,2,0,0,0,1,.28,1.91,1.91,0,0,0,1-.29l54.87-32.9a2,2,0,0,0,0-3.43Z" transform="translate(0.11 0.08)"/><path class="cls-3" d="M122.38,129.79l-18.7-11.19a2,2,0,0,0-2,0,2,2,0,0,0-1,1.74l-.06,21.84-11.1-6.64.06-24.25a2,2,0,0,0-1-1.72L67.68,97a2,2,0,0,0-3,1.71l-.07,56.65a2,2,0,0,0,1,1.72l54.75,32.79a2,2,0,0,0,1,.28,1.89,1.89,0,0,0,1-.26,2,2,0,0,0,1-1.74V131.5A2,2,0,0,0,122.38,129.79Z" transform="translate(0.11 0.08)"/><path class="cls-3" d="M185.11,98.69a2,2,0,0,0-3-1.71l-54.69,32.76a2,2,0,0,0-1,1.72V188.2a2,2,0,0,0,3,1.71l54.74-32.82a2,2,0,0,0,1-1.72Zm-26.3,45.08,7.36,6a1,1,0,0,1,.22,1.31l-8.69,14.26a1,1,0,0,1-1.51.26l-7.66-6.21a1,1,0,0,1-.23-1.32l8.4-13.73a1,1,0,0,0-.23-1.32l-7.39-6a1,1,0,0,1-.23-1.31l8.74-14.3a1,1,0,0,1,1.51-.26l7.62,6.26a1,1,0,0,1,.23,1.31l-8.36,13.7A1,1,0,0,0,158.81,143.77Z" transform="translate(0.11 0.08)"/></svg>