<svg id="Layer_1" data-name="Layer 1" xmlns="http://www.w3.org/2000/svg" viewBox="0 0 250 250"><defs><style>.cls-1{fill:#231f20;}.cls-2{fill:#f1f2f2;}</style></defs><circle class="cls-1" cx="125" cy="125" r="125"/><polygon class="cls-2" points="166.21 66.65 166.06 66.76 165.89 66.65 166.21 66.65"/><path class="cls-2" d="M166.14,151.19a2.22,2.22,0,0,0,.22-4.41l-3.84-.54q0-1.78-.06-3.6c-.05-.9-.12-1.79-.2-2.68l3.76-.87a2.22,2.22,0,0,0-.61-4.38l-3.85.18a62.06,62.06,0,0,0-1.43-6.13l3.53-1.55a2.21,2.21,0,0,0-1.39-4.18l-3.78.88c-.75-2-1.6-3.88-2.53-5.75l3.21-2.18a2.22,2.22,0,0,0-2.15-3.87l-3.58,1.58a61.76,61.76,0,0,0-3.53-5.16l2.77-2.77a2.22,2.22,0,0,0-2.81-3.41l-3.25,2.23a59.45,59.45,0,0,0-4.41-4.43l2.23-3.25a2.22,2.22,0,0,0-3.4-2.82l-2.77,2.76c-1.65-1.26-3.38-2.45-5.15-3.55l1.59-3.58a2.22,2.22,0,0,0-3.87-2.15l-2.2,3.2a57.59,57.59,0,0,0-5.72-2.56l.89-3.76A2.22,2.22,0,0,0,119.62,83l-1.55,3.52a59.41,59.41,0,0,0-6.13-1.45l.19-3.85a2.21,2.21,0,0,0-4.37-.61l-.88,3.74c-1-.09-1.92-.17-2.89-.22-1.13-.06-2.27-.08-3.4-.07l-.52-3.83a2.22,2.22,0,0,0-4.41.2l-.18,3.85c-2.11.18-4.19.47-6.24.85L88,81.51a2.22,2.22,0,0,0-4.3,1l.53,3.82a60.49,60.49,0,0,0-6,2L76.43,85a2.22,2.22,0,0,0-4.05,1.78l1.23,3.65a58.89,58.89,0,0,0-5.5,3.06l-2.45-3A2.22,2.22,0,0,0,62,93l1.87,3.36c-1.67,1.27-3.29,2.6-4.84,4l-3-2.48A2.23,2.23,0,0,0,52.94,101l2.48,3a58,58,0,0,0-4,4.83L48,106.89a2.22,2.22,0,0,0-2.5,3.64l3,2.47a56.46,56.46,0,0,0-3.07,5.48l-3.65-1.24A2.22,2.22,0,0,0,40,121.29l3.35,1.87a60.22,60.22,0,0,0-2,6l-3.81-.53a2.22,2.22,0,0,0-1,4.3l3.64,1.22a57.65,57.65,0,0,0-.86,6.23l-3.85.17a2.22,2.22,0,0,0-.21,4.41l3.81.54c0,1.2,0,2.4.09,3.61,0,.89.11,1.78.2,2.67l-3.77.87a2.22,2.22,0,0,0,.6,4.38L40,156.8c.38,2.08.87,4.11,1.44,6.11l-3.54,1.55a2.22,2.22,0,0,0,1.4,4.2l3.78-.88a61.17,61.17,0,0,0,2.54,5.73l-3.22,2.2a2.22,2.22,0,0,0,2.14,3.87L48.12,178a55.38,55.38,0,0,0,3.54,5.16l-2.79,2.78a2.22,2.22,0,0,0,2.81,3.41l3.26-2.23a59.59,59.59,0,0,0,4.42,4.43l-2.24,3.25a2.22,2.22,0,0,0,3.4,2.82l2.77-2.77c1.65,1.27,3.38,2.46,5.15,3.56L66.86,202a2.21,2.21,0,0,0,3.85,2.15l2.21-3.22a57.66,57.66,0,0,0,5.72,2.57l-.9,3.77a2.22,2.22,0,0,0,4.19,1.41l1.56-3.53a61.93,61.93,0,0,0,6.12,1.45l-.19,3.86a2.21,2.21,0,0,0,4.37.61l.89-3.75q1.42.13,2.88.21c1.13.07,2.27.09,3.4.09l.52,3.83a2.22,2.22,0,0,0,4.41-.2l.19-3.85c2.11-.18,4.19-.47,6.23-.85l1.21,3.65a2.22,2.22,0,0,0,4.31-1l-.52-3.82a60.3,60.3,0,0,0,6-2l1.86,3.36a2.22,2.22,0,0,0,4-1.78L128,201.31a59.86,59.86,0,0,0,5.48-3.06l2.47,3a2.22,2.22,0,0,0,3.65-2.49l-1.88-3.38a57.68,57.68,0,0,0,4.83-4l3,2.49a2.22,2.22,0,0,0,3.13-3.13l-2.47-3a58.24,58.24,0,0,0,4-4.83l3.36,1.89a2.22,2.22,0,0,0,2.51-3.64l-3-2.47a57.32,57.32,0,0,0,3.06-5.48l3.65,1.24a2.23,2.23,0,0,0,1.8-4l-3.36-1.87c.76-1.94,1.44-3.93,2-5.95l3.8.53a2.22,2.22,0,0,0,1-4.3l-3.65-1.22a57.65,57.65,0,0,0,.86-6.23Zm-68.71,40a7.72,7.72,0,0,1-9.54,7.53A54.48,54.48,0,0,1,50,126.11a7.75,7.75,0,0,1,11.65-3.5l32.44,22.73a7.71,7.71,0,0,1,3.3,6.34Zm-1.11-52.49-30.8-21.55a7.73,7.73,0,0,1-.75-12.1,54.45,54.45,0,0,1,72,0,7.73,7.73,0,0,1-.74,12.1l-30.83,21.58A7.71,7.71,0,0,1,96.32,138.69Zm4.46,8.59a1.44,1.44,0,1,1,1.44-1.44A1.43,1.43,0,0,1,100.78,147.28Zm12.9,51.43a7.74,7.74,0,0,1-9.55-7.53V151.64a7.76,7.76,0,0,1,3.3-6.34l32.43-22.7a7.74,7.74,0,0,1,11.65,3.49,54.5,54.5,0,0,1-37.83,72.62Z" transform="translate(0.11 0.08)"/><path class="cls-2" d="M198.64,98.29l-2.35-3.37a31.6,31.6,0,0,0,3.4-5.2l4,.78a2.52,2.52,0,0,0,1.83-4.59l-3.45-2.21a31.88,31.88,0,0,0,1.14-6.09l4-.83a2.52,2.52,0,0,0-.06-4.94l-4-.72A33.72,33.72,0,0,0,201.88,65l3.38-2.29a2.51,2.51,0,0,0-1.94-4.54l-4,.88A32.9,32.9,0,0,0,195.8,54l2.26-3.41a2.51,2.51,0,0,0-3.53-3.44l-3.36,2.34a32.55,32.55,0,0,0-5.21-3.4l.77-4a2.51,2.51,0,0,0-4.58-1.82L180,43.65a32.08,32.08,0,0,0-6.11-1.14l-.81-4a2.52,2.52,0,0,0-4.95.06l-.72,4a31.66,31.66,0,0,0-6.07,1.27L159,40.48a2.52,2.52,0,0,0-4.54,2l.88,4A32.35,32.35,0,0,0,150.21,50l-3.42-2.27a2.51,2.51,0,0,0-3.45,3.53l2.35,3.37a33.24,33.24,0,0,0-3.4,5.21l-4-.79a2.52,2.52,0,0,0-1.84,4.59l3.45,2.21a32.75,32.75,0,0,0-1.13,6.1l-4,.83a2.51,2.51,0,0,0,.06,4.93l4,.73a32.46,32.46,0,0,0,1.28,6.07l-3.4,2.3a2.5,2.5,0,0,0,1.95,4.52l4-.87a31.7,31.7,0,0,0,3.52,5.12L143.93,99a2.51,2.51,0,0,0,3.53,3.45l3.36-2.34a32.72,32.72,0,0,0,5.21,3.39l-.78,4a2.51,2.51,0,0,0,4.58,1.84l2.21-3.46a32.22,32.22,0,0,0,6.11,1.14l.82,4a2.52,2.52,0,0,0,4.94-.07l.72-4a31.87,31.87,0,0,0,6.07-1.29L183,109a2.51,2.51,0,0,0,4.54-1.94l-.88-4a31.35,31.35,0,0,0,5.13-3.52l3.42,2.26A2.51,2.51,0,0,0,198.64,98.29ZM152.72,87.66a3.28,3.28,0,0,1-5.24-.85,26.46,26.46,0,0,1,10-34.75,3.25,3.25,0,0,1,4.84,2.26l3.28,18.51a3.28,3.28,0,0,1-.91,2.88ZM168.84,76.9a1.67,1.67,0,1,1,2.36,0A1.67,1.67,0,0,1,168.84,76.9Zm4.57-4.35-.18,0,0-.19-3.53-20.09a3.26,3.26,0,0,1,3.49-3.81A26.38,26.38,0,0,1,197.32,72.6a3.26,3.26,0,0,1-3.81,3.49ZM158.94,98.26a3.27,3.27,0,0,1-.86-5.23l12-12a3.25,3.25,0,0,1,2.86-.9l18.52,3.27a3.25,3.25,0,0,1,2.26,4.84,26,26,0,0,1-4,5.15A26.41,26.41,0,0,1,158.94,98.26Z" transform="translate(0.11 0.08)"/><path class="cls-2" d="M215.47,137.29l-4.28-2.66a22.13,22.13,0,0,0,0-5.55l4.26-2.59a2.09,2.09,0,0,0-1.13-3.88l-4.93.07a21.36,21.36,0,0,0-3-4.8l2.15-4.42a2.09,2.09,0,0,0-3-2.65l-4,2.67a21.26,21.26,0,0,0-5.23-2.53l-.56-4.73a2.08,2.08,0,0,0-4-.58L190,109.88h-.43a21.59,21.59,0,0,0-5.55.71l-2.85-3.48a2.08,2.08,0,0,0-3.65,1.65l.7,4.3a22.06,22.06,0,0,0-4.87,4l-4-1.28a2.07,2.07,0,0,0-2.19,3.35l2.71,3a21.41,21.41,0,0,0-1.95,6.35l-3.79,1a2.09,2.09,0,0,0,0,4l3.76,1.05a20.79,20.79,0,0,0,1.89,6.46l-2.62,2.89a2.09,2.09,0,0,0,2.17,3.4l3.81-1.18a21.87,21.87,0,0,0,5,4.21l-.69,4.14a2.08,2.08,0,0,0,3.66,1.67l2.78-3.33a22.19,22.19,0,0,0,5.69.75h.38l1.8,4.22a2.07,2.07,0,0,0,4-.55l.59-4.73a21.08,21.08,0,0,0,5.18-2.46l4,2.75a2.08,2.08,0,0,0,3.05-2.61l-2.15-4.53a22,22,0,0,0,3-4.66l5,.13A2.09,2.09,0,0,0,215.47,137.29ZM189.52,113a18.67,18.67,0,0,1,11.11,3.64,3.45,3.45,0,0,1-.07,5.6l-9.05,6.37a3.44,3.44,0,0,1-4,0l-9.06-6.36a3.45,3.45,0,0,1-.07-5.6A18.61,18.61,0,0,1,189.52,113ZM188,146.2a3.45,3.45,0,0,1-4.55,3.28,18.76,18.76,0,0,1-12-22.79,3.47,3.47,0,0,1,5.33-1.91l9.76,6.86a3.45,3.45,0,0,1,1.46,2.82Zm1.53-13.88a.59.59,0,0,1,0-1.17.59.59,0,0,1,0,1.17Zm1.54,13.88V134.44a3.46,3.46,0,0,1,1.47-2.82l9.74-6.86a3.46,3.46,0,0,1,5.33,1.91,18.79,18.79,0,0,1-12,22.81A3.46,3.46,0,0,1,191.06,146.2Z" transform="translate(0.11 0.08)"/></svg>